PathFileType	4	(X/Y/Z)	Patient4_TMGait_0pt3_01_left_10.trc.trc
DataRate	CameraRate	NumFrames	NumMarkers	Units	OrigDataRate	OrigDataStartFrame	OrigNumFrames
53.846153846154	53.846153846154	5	33	mm	53.846153846154	36	       141
Frame#	Time	Sacral			L.Shoulder			Chest			R.Shoulder			Neck			R.ASIS			L.ASIS			R.Thigh.Superior			R.Thigh.Lateral			R.Thigh.Inferior			R.Patella			L.Thigh.Superior			L.Thigh.Lateral			L.Thigh.Inferior			L.Patella			L.Shank.Superior			L.Shank.Lateral			L.Shank.Inferior			R.Shank.Superior			R.Shank.Lateral			R.Shank.Inferior			R.Heel			R.Midfoot.Superior			R.Midfoot.Lateral			R.Toe			L.Heel			L.Midfoot.Lateral			L.Midfoot.Superior			L.Toe			L.Elbow			L.Wrist			R.Elbow			R.Wrist			
		X1	Y1	Z1	X2	Y2	Z2	X3	Y3	Z3	X4	Y4	Z4	X5	Y5	Z5	X6	Y6	Z6	X7	Y7	Z7	X8	Y8	Z8	X9	Y9	Z9	X10	Y10	Z10	X11	Y11	Z11	X12	Y12	Z12	X13	Y13	Z13	X14	Y14	Z14	X15	Y15	Z15	X16	Y16	Z16	X17	Y17	Z17	X18	Y18	Z18	X19	Y19	Z19	X20	Y20	Z20	X21	Y21	Z21	X22	Y22	Z22	X23	Y23	Z23	X24	Y24	Z24	X25	Y25	Z25	X26	Y26	Z26	X27	Y27	Z27	X28	Y28	Z28	X29	Y29	Z29	X30	Y30	Z30	X31	Y31	Z31	X32	Y32	Z32	X33	Y33	Z33	

36	19.060000000000	628.580241331448	996.707160880854	519.443006829731	753.037138382906	1422.970241551667	307.547012349349	901.025433158884	1351.207132579634	427.216911524371	875.804969925659	1425.334851267533	617.261008748193	785.496100346376	1482.205299225401	466.241620122760	874.941889889994	921.653924301896	580.500075051086	803.965178238611	953.608720197189	317.268499390599	870.061442992214	711.168052744298	555.681003354987	776.776098824679	613.231829174268	628.784990688919	831.651284607631	548.688885117600	543.129486163816	811.525989582148	454.562464123289	555.281449687501	885.498817059283	762.329669889276	343.624583860949	820.024328049504	632.970227049927	279.445811438586	924.427501609742	568.803398653142	330.979209796131	938.467200191849	493.541882706165	331.070323647229	906.410970379138	418.486945044495	323.683309946245	810.458085381947	311.003273332939	270.895160857306	859.154607308646	193.161624068849	329.846338713045	751.646537338639	378.672210648772	566.691184355267	651.950003966133	305.854264781955	635.198918743153	657.750308453205	201.531776416884	575.468993666521	480.435836172725	68.050830363938	549.041271460505	654.704233870857	99.991022441240	591.439688390989	558.977656253289	49.316194940860	626.548888380191	765.205770853995	36.476659083988	626.791412435128	725.772032851871	40.575756090499	363.663790254083	798.043889454365	37.220762828891	281.969656153239	883.612563924765	96.572721172705	308.016229426633	1009.700293976505	40.803556587417	274.318934596467	603.894156402700	1102.059814965060	222.595487149364	662.439619257275	850.418369535583	173.930022724855	1052.744793946358	1119.137055060089	630.658437422138	1218.503317559472	1177.662371564402	448.270597645465	
37	19.078571428571	628.966068828760	998.406066164466	513.866437708307	755.388766319544	1424.189849546547	302.403344626359	902.763770547538	1351.980743181241	422.536193873755	877.095165220845	1426.168972720061	612.519893922360	787.213378369976	1483.276309613790	461.301897511068	874.779811007552	922.384052292158	575.815667865979	804.828420925363	954.398583271576	312.394349873444	868.676362082248	711.779058725684	552.326490064118	774.561321549613	614.919637652131	625.885996868192	829.353685160439	549.446647654757	540.871366326175	808.685389436509	455.534550590426	553.612061153911	885.000600153459	762.273542126256	339.812708058726	818.502690688960	632.928095604892	276.542920726923	922.135834696479	568.190333532050	328.816546022596	935.750857432735	492.923402868646	329.499993444658	903.227083459794	417.998793719876	322.390336456682	806.926727752538	310.759029742972	269.943266126331	854.691516384076	193.026128534790	329.702524198248	748.481392469932	380.142717119644	565.460971244721	648.232888832885	308.301618425527	634.140662048576	653.822854071001	203.401054289493	575.187945546401	475.756947210704	71.372609080985	549.272889261462	650.416462761974	100.784285070661	591.814198453018	554.038972333105	51.250322187199	626.663555103716	759.819939966507	36.295499687148	626.770509526054	720.435207606872	40.858781127178	363.804652943627	792.655678163862	37.495454499938	282.103775512191	878.385104449335	96.544257973784	308.147127481527	1004.316403559093	40.403316516514	274.218047331341	608.026053869765	1103.062290004328	214.355029013362	675.338890601252	854.024419077672	163.376055199931	1053.328068408850	1119.375617007175	627.311514825012	1221.949591715332	1174.618858404069	446.229332833500	
38	19.097142857143	629.245646620956	1000.154667577760	508.164404291501	757.840334419862	1425.510835752461	297.314144126476	904.449321100658	1352.834279216104	418.067799581797	878.143583208488	1427.071494512670	607.971780250403	788.892260071898	1484.430254932877	456.462212971866	874.477447892878	923.206060383243	571.201573441208	805.705504497311	955.218744419044	307.530622967259	867.212542844452	712.530646617553	549.005510205036	772.292575289172	616.730417447700	622.972953377642	827.079098536161	550.346736493264	538.641211962759	805.924939458435	456.627419965438	551.978824541697	884.375091386796	762.166885897085	335.917027549407	816.709225600953	632.898278078218	273.588908998021	919.559302122137	567.548119663835	326.540615494571	932.686816128797	492.311758369135	327.839258305620	899.731074436573	417.550187082245	321.004731956327	803.087766468532	310.501786711630	268.966555413899	850.084591591583	192.913113367147	329.486807604579	745.409203081540	381.728636601229	564.252457137510	644.566848906072	310.858110829956	633.035675801679	650.006354594042	205.366189541743	574.900101117457	471.183386000558	74.822616150658	549.466327113076	646.242799394718	101.586823111211	592.187184316326	549.159613047872	53.278140574885	626.747465036609	754.429062772636	36.148628921147	626.732618518702	715.064294329486	41.125589781082	363.946252093124	787.236820844597	37.736714918745	282.232118202252	873.110243417300	96.505779705500	308.257030612690	998.885393713054	40.064247233676	274.135410393450	612.562811493730	1104.235844688210	205.610476350189	688.325007617924	858.020131539837	152.613573738385	1053.476335142615	1119.506313424341	624.628498526119	1225.635023642052	1170.836614187365	445.395471135832	
39	19.115714285714	629.411033432468	1001.912290115683	502.359805025538	760.351461248982	1426.902509040024	292.304686167270	906.049810375026	1353.747937497742	413.830229754546	878.917917621559	1428.014609163771	603.634065076156	790.503338940965	1485.636038947900	451.740213792037	874.036877829879	924.102826184155	566.664431601638	806.591917267476	956.044966350261	302.692301890164	865.705676605437	713.396985481940	545.702796641938	770.020244576682	618.615301848620	620.029307908344	824.880195520062	551.354534796763	536.408881613150	803.310829521865	457.784349022194	550.356389097178	883.661028339917	762.013005124891	331.954784350896	814.711248920999	632.875959330980	270.587811349701	916.766975271191	566.883871670661	324.152687947561	929.346095608288	491.710741477855	326.088527448916	895.991285788621	417.134677988190	319.527366291648	799.002284860352	310.239324546950	267.951151627976	845.356568016411	192.817371613073	329.195764511060	742.475544116469	383.370249562808	563.037093447653	640.994119342223	313.484987527122	631.867007187355	646.323349911326	207.389535786538	574.591307033101	466.717463831092	78.372972566109	549.618615193381	642.181000948696	102.378303172445	592.541780186035	544.343093355099	55.384040190577	626.799096867419	749.033893051899	36.036675628806	626.678646622947	709.654350143498	41.377662892083	364.079429149900	781.782129254152	37.946393138072	282.346978277467	867.783467728270	96.463949880322	308.339506464057	993.406787455928	39.783472269834	274.062665754282	617.531201113442	1105.528736322529	196.410258742542	701.360985281787	862.312712820439	141.671740597588	1053.078850852653	1119.458883783313	622.612901456324	1229.408728083325	1166.140573594025	445.813234374252	
40	19.134285714286	629.452921933427	1003.643944504220	496.473589652021	762.889521918172	1428.336365368277	287.392298809225	907.539440043215	1354.702095202599	409.833634477337	879.393606256188	1428.974741326621	599.513792709714	792.020191486669	1486.864274866505	447.146744647933	873.458618262699	925.059738780387	562.213553461142	807.485800101064	956.857387961060	297.895962837979	864.211615576413	714.352589145171	542.409840435629	767.820726855098	620.518441321952	617.042366132736	822.844214110500	552.430782789395	534.149099937857	800.945690671024	458.940376644051	548.725077791573	882.891379894819	761.811879466189	327.958557629412	812.578494003648	632.856570009254	267.553005375780	913.818345010066	566.202021262376	321.685409742715	925.792511125536	491.120983905437	324.274446111294	892.067398507029	416.745894969006	317.976669135744	794.729668886279	309.978264943663	266.892770719609	840.530684662108	192.734572058530	328.835619451793	739.758450214125	385.004709969465	561.791026886238	637.585240394007	316.147089978805	630.623968426610	642.812495405918	209.438209983793	574.250963197067	462.368670182637	82.021854403130	549.731288991280	638.235831753765	103.146307225049	592.864875138561	539.598521219538	57.569317201038	626.820628459548	743.639110050518	35.954855662598	626.611342816606	704.204619970461	41.615087468602	364.194886611403	776.291814329336	38.126535840511	282.442359219311	862.405577034737	96.425171427829	308.391580340678	987.885593732124	39.555693888239	273.994409989990	622.944580033454	1106.898741284195	186.822674268389	714.439308445610	866.825569334510	130.591516523638	1052.023261711502	1119.170848822111	621.258394487684	1233.095745226949	1160.347892721225	447.520748830950	
